HIERARCHY
ROOT SpineBase
{
  OFFSET 0.000000 0.000000 0.000000
  CHANNELS 6 Xposition Yposition Zposition Zrotation Xrotation Yrotation
  JOINT SpineMid
  {
    OFFSET 0.000000 29.318022 0.000000
    CHANNELS 3 Zrotation Xrotation Yrotation
    JOINT SpineShoulder
    {
      OFFSET -0.166324 21.770914 -0.618470
      CHANNELS 3 Zrotation Xrotation Yrotation
      JOINT Neck
      {
        OFFSET -0.110981 7.220257 -0.500788
        CHANNELS 3 Zrotation Xrotation Yrotation
        JOINT Head
        {
          OFFSET 1.114359 9.146121 -1.687007
          CHANNELS 3 Zrotation Xrotation Yrotation
          End Site
          {
            OFFSET 0 0 0
          }
        }
      }
      JOINT ShoulderLeft
      {
        OFFSET -16.123484 -3.484942 1.101756
        CHANNELS 3 Zrotation Xrotation Yrotation
        JOINT ElbowLeft
        {
          OFFSET -5.088805 -21.147055 5.350673
          CHANNELS 3 Zrotation Xrotation Yrotation
          JOINT WristLeft
          {
            OFFSET 5.587805 -18.643349 0.827967
            CHANNELS 3 Zrotation Xrotation Yrotation
            JOINT HandLeft
            {
              OFFSET 0.841770 -5.582816 2.655773
              CHANNELS 3 Zrotation Xrotation Yrotation
              JOINT HandTipLeft
              {
                OFFSET -0.579655 0.056114 -0.204945
                CHANNELS 3 Zrotation Xrotation Yrotation
                End Site
                {
                  OFFSET 0 0 0
                }
              }
              JOINT ThumbLeft
              {
                OFFSET -0.324883 0.735793 -2.110370
                CHANNELS 3 Zrotation Xrotation Yrotation
                End Site
                {
                  OFFSET 0 0 0
                }
              }
            }
          }
        }
      }
      JOINT ShoulderRight
      {
        OFFSET 14.832715 -3.549285 3.552839
        CHANNELS 3 Zrotation Xrotation Yrotation
        JOINT ElbowRight
        {
          OFFSET 4.623766 -21.692990 6.855529
          CHANNELS 3 Zrotation Xrotation Yrotation
          JOINT WristRight
          {
            OFFSET -0.992023 -18.695566 -6.962879
            CHANNELS 3 Zrotation Xrotation Yrotation
            JOINT HandRight
            {
              OFFSET 0.413749 -4.139908 -1.863427
              CHANNELS 3 Zrotation Xrotation Yrotation
              JOINT HandTipRight
              {
                OFFSET 0.073052 -3.446981 -1.213422
                CHANNELS 3 Zrotation Xrotation Yrotation
                End Site
                {
                  OFFSET 0 0 0
                }
              }
              JOINT ThumbRight
              {
                OFFSET -0.665696 2.728784 -1.757117
                CHANNELS 3 Zrotation Xrotation Yrotation
                End Site
                {
                  OFFSET 0 0 0
                }
              }
            }
          }
        }
      }
    }
  }
  JOINT HipLeft
  {
    OFFSET -7.300134 1.312235 -3.551344
    CHANNELS 3 Zrotation Xrotation Yrotation
    JOINT KneeLeft
    {
      OFFSET -6.263179 -29.788359 -1.276459
      CHANNELS 3 Zrotation Xrotation Yrotation
      JOINT AnkleLeft
      {
        OFFSET -2.220212 -27.565513 4.423297
        CHANNELS 3 Zrotation Xrotation Yrotation
        JOINT FootLeft
        {
          OFFSET 0.539921 -2.746285 -12.693054
          CHANNELS 3 Zrotation Xrotation Yrotation
          End Site
          {
            OFFSET 0 0 0
          }
        }
      }
    }
  }
  JOINT HipRight
  {
    OFFSET 6.075041 1.014259 -2.907006
    CHANNELS 3 Zrotation Xrotation Yrotation
    JOINT KneeRight
    {
      OFFSET 7.399234 -28.652490 2.561131
      CHANNELS 3 Zrotation Xrotation Yrotation
      JOINT AnkleRight
      {
        OFFSET 4.478800 -26.851751 7.773537
        CHANNELS 3 Zrotation Xrotation Yrotation
        JOINT FootRight
        {
          OFFSET 0.293843 -2.797923 -12.674133
          CHANNELS 3 Zrotation Xrotation Yrotation
          End Site
          {
            OFFSET 0 0 0
          }
        }
      }
    }
  }
}
MOTION
Frames: 9
Frame Time: 0.033333
69.620174 60.157694 383.691558 -0.000000 0.000000 -2.758047 0.000000 -0.000000 2.758047 -0.000000 0.000000 0.000000 -0.000000 0.000000 0.000000 0.000000 0.000000 0.000000 -0.000000 0.000000 0.000000 -0.000000 0.000000 0.000000 -0.000000 0.000000 0.000000 -0.000000 0.000000 0.000000 0.000000 0.000000 0.000000 0.000000 0.000000 0.000000 -0.000000 0.000000 0.000000 -0.000000 0.000000 0.000000 -0.000000 0.000000 0.000000 -0.000000 0.000000 0.000000 0.000000 0.000000 0.000000 0.000000 0.000000 0.000000 0.000000 -0.000000 2.758047 -0.000000 0.000000 0.000000 -0.000000 0.000000 0.000000 0.000000 0.000000 0.000000 0.000000 -0.000000 2.758047 -0.000000 0.000000 0.000000 -0.000000 0.000000 0.000000 0.000000 0.000000 0.000000
69.560456 60.128478 383.633614 0.209956 0.348153 -2.305427 -0.195785 -0.356315 2.304181 -0.000000 0.000000 0.000000 -0.000000 0.000000 0.000000 0.000000 0.000000 0.000000 -0.000000 0.000000 0.000000 -0.000000 0.000000 0.000000 -0.000000 0.000000 0.000000 -0.000000 0.000000 0.000000 0.000000 0.000000 0.000000 0.000000 0.000000 0.000000 -0.912843 -0.468125 -0.392154 0.909649 0.474302 0.384660 10.823804 -6.015572 -4.985414 -11.695704 3.313117 6.222088 0.000000 0.000000 0.000000 0.000000 0.000000 0.000000 -0.195785 -0.356315 2.304181 -0.000000 0.000000 0.000000 -0.000000 0.000000 0.000000 0.000000 0.000000 0.000000 -0.195785 -0.356315 2.304181 -0.000000 0.000000 0.000000 -0.000000 0.000000 0.000000 0.000000 0.000000 0.000000
69.502784 60.103739 383.580544 0.375248 0.653159 -1.935814 -0.057393 0.527128 1.950553 0.129749 0.196598 0.035477 -1.215333 -2.513259 -0.083870 0.000000 0.000000 0.000000 -0.466708 -1.378119 -0.059122 -0.000000 0.000000 0.000000 -0.000000 0.000000 0.000000 -0.000000 0.000000 0.000000 0.000000 0.000000 0.000000 0.000000 0.000000 0.000000 -2.087341 -2.260602 -0.811121 1.607718 0.904426 0.687851 17.718173 -9.049709 -7.674777 -19.107930 3.085511 10.347863 0.000000 0.000000 0.000000 0.000000 0.000000 0.000000 -0.352994 -0.665449 1.931625 -0.000000 0.000000 0.000000 -0.000000 0.000000 0.000000 0.000000 0.000000 0.000000 -0.352994 -0.665449 1.931625 -0.000000 0.000000 0.000000 -0.000000 0.000000 0.000000 0.000000 0.000000 0.000000
69.447158 60.083476 383.532349 0.493299 0.911491 -1.649597 -0.091223 0.704189 1.666995 0.170959 0.236959 0.046550 -1.534022 -3.438628 -0.101946 0.000000 0.000000 0.000000 -0.595592 -1.854297 -0.079370 -0.000000 0.000000 0.000000 -0.000000 0.000000 0.000000 -0.000000 0.000000 0.000000 0.000000 0.000000 0.000000 0.000000 0.000000 0.000000 -2.746926 -3.114126 -1.121117 2.125720 1.299466 0.924374 21.765893 -9.199406 -9.202474 -22.861394 0.780207 12.150233 0.000000 0.000000 0.000000 0.000000 0.000000 0.000000 -0.466918 -0.925282 1.641902 -0.000000 0.000000 0.000000 -0.000000 0.000000 0.000000 0.000000 0.000000 0.000000 -0.466918 -0.925282 1.641902 -0.000000 0.000000 0.000000 -0.000000 0.000000 0.000000 0.000000 0.000000 0.000000
69.393580 60.067690 383.489029 0.562119 1.120177 -1.446893 -0.132265 0.813774 1.464841 0.193657 0.232050 0.052465 -1.678626 -4.155838 -0.094291 0.000000 0.000000 0.000000 -1.444465 -2.657536 -0.206945 0.795089 0.491898 0.079614 -0.000000 0.000000 0.000000 -0.000000 0.000000 0.000000 0.000000 0.000000 0.000000 0.000000 0.000000 0.000000 -3.172328 -3.779584 -1.362331 2.485541 1.667206 1.104766 23.665245 -6.644002 -10.103637 -23.714521 -2.950126 11.920365 0.000000 0.000000 0.000000 0.000000 0.000000 0.000000 -0.533761 -1.133962 1.436115 -0.000000 0.000000 0.000000 -0.000000 0.000000 0.000000 0.000000 0.000000 0.000000 0.031877 -1.910792 1.295981 -0.547867 0.789330 0.158936 -0.000000 0.000000 0.000000 0.000000 0.000000 0.000000
69.342047 60.056379 383.450584 0.580367 1.276885 -1.327617 -0.181808 0.851354 1.344545 0.197062 0.179835 0.052831 -1.654862 -4.672921 -0.056263 0.000000 0.000000 0.000000 -1.529907 -2.956002 -0.206882 0.908332 0.647646 0.069079 -0.000000 0.000000 0.000000 -0.000000 0.000000 0.000000 0.000000 0.000000 0.000000 0.000000 0.000000 0.000000 -3.373778 -4.257689 -1.532684 2.425605 2.878524 1.297687 23.908169 -2.066551 -10.156041 -22.063228 -8.136125 9.936825 0.000000 0.000000 0.000000 0.000000 0.000000 0.000000 -0.550769 -1.289927 1.314950 -0.000000 0.000000 0.000000 -0.000000 0.000000 0.000000 0.000000 0.000000 0.000000 0.044939 -2.216349 1.142126 -0.577052 0.937991 0.195773 -0.000000 0.000000 0.000000 0.000000 0.000000 0.000000
69.309881 60.040832 383.435224 0.536895 1.354303 -1.332135 -0.277156 0.691023 1.344625 0.170343 -0.076617 0.041201 -1.409586 -4.860859 0.048390 0.000000 0.000000 0.000000 -1.528895 -2.898901 -0.164764 1.077417 0.926970 0.041009 -0.000000 0.000000 0.000000 -0.000000 0.000000 0.000000 0.000000 0.000000 0.000000 0.000000 0.000000 0.000000 -2.681685 -4.708765 -1.481770 1.797830 3.912302 1.317566 11.456634 17.047761 -4.456979 -7.219435 -24.785109 1.185133 0.000000 0.000000 0.000000 0.000000 0.000000 0.000000 -0.505412 -1.366362 1.319763 -0.000000 0.000000 0.000000 -0.000000 0.000000 0.000000 0.000000 0.000000 0.000000 -0.024102 -2.512913 1.078270 -0.459608 1.155316 0.262418 -0.000000 0.000000 0.000000 0.000000 0.000000 0.000000
69.259861 60.035595 383.409955 0.402737 1.274574 -1.391788 -0.371277 0.322485 1.396537 0.144633 -0.224805 0.023016 -0.863895 -4.386387 0.169942 0.000000 0.000000 0.000000 -1.240676 -2.436066 -0.084014 1.054190 1.056131 0.002884 -0.000000 0.000000 0.000000 -0.000000 0.000000 0.000000 0.000000 0.000000 0.000000 0.000000 0.000000 0.000000 -2.389692 -4.504711 -1.504625 1.778641 4.233525 1.381525 2.434833 32.115147 1.595314 1.542930 -37.545211 -1.979698 0.000000 0.000000 0.000000 0.000000 0.000000 0.000000 -0.371756 -1.283951 1.383142 -0.000000 0.000000 0.000000 -0.000000 0.000000 0.000000 0.000000 0.000000 0.000000 0.068378 -2.513671 1.114668 -0.416119 1.237975 0.287555 -0.000000 0.000000 0.000000 0.000000 0.000000 0.000000
69.215778 60.039723 383.382659 0.261572 1.321857 -1.558983 -0.440613 0.338960 1.559453 0.021742 0.009415 0.007974 0.062650 -5.153594 0.386815 0.000000 0.000000 0.000000 -0.712391 -2.864383 0.019488 0.860230 1.181668 -0.075911 3.207042 -6.400349 0.717209 -3.146660 6.430156 -0.361050 0.000000 0.000000 0.000000 0.000000 0.000000 0.000000 -2.023178 -4.992069 -1.522878 1.790531 4.265281 1.394507 -13.706532 45.089320 14.283251 12.565392 -50.329159 -2.598501 0.000000 0.000000 0.000000 0.000000 0.000000 0.000000 -0.225576 -1.328472 1.553351 -0.000000 0.000000 0.000000 -0.000000 0.000000 0.000000 0.000000 0.000000 0.000000 0.167515 -2.508894 1.291733 -0.366357 1.188924 0.278581 -0.000000 0.000000 0.000000 0.000000 0.000000 0.000000
